<svg data-name="Layer 1" xmlns="http://www.w3.org/2000/svg" viewBox="0 0 100 100">
  <g>
    <path d="M50.623,23.7371A25.893,25.893,0,1,0,76.516,49.63,25.9428,25.9428,0,0,0,50.623,23.7371Zm0,42.4806A16.5877,16.5877,0,1,1,67.2107,49.63,16.6626,16.6626,0,0,1,50.623,66.2177Z"/>
    <circle cx="77.5275" cy="23.1302" r="5.8664"/>
    <path d="M92.6991,7.9585C87.44,2.4967,79.9549-.3353,71.4588-.3353H29.7873C12.1881-.3353.4554,11.3974.4554,28.9966V70.4658c0,8.6984,2.832,16.1831,8.4961,21.6449C14.4133,97.37,21.6957,100,29.99,100H71.2565c8.6984,0,15.9808-2.832,21.24-7.8893,5.4618-5.2595,8.2939-12.7442,8.2939-21.4426V28.9966C100.7907,20.5,97.9586,13.218,92.6991,7.9585Zm-.8091,62.71c0,6.271-2.2252,11.3282-5.8664,14.7671s-8.6984,5.26-14.7671,5.26H29.99c-6.0687,0-11.1259-1.8206-14.7671-5.26-3.6412-3.6412-5.4618-8.6984-5.4618-14.9694V28.9966c0-6.0687,1.8206-11.1259,5.4618-14.7671C18.6614,10.7906,23.9209,8.97,29.99,8.97H71.6611c6.0686,0,11.1259,1.8206,14.7671,5.4618A20.8742,20.8742,0,0,1,91.89,28.9966V70.6681Z"/>
  </g>
</svg>
