<svg data-name="Layer 1" xmlns="http://www.w3.org/2000/svg" viewBox="0 0 100 100">
  <g data-name="Pinterest Logo">
    <path class="b01095d2-5161-4f6c-842a-5bbf0625d49b" d="M-.04,49.9994A50.0431,50.0431,0,0,0,29.9133,95.832a43.9635,43.9635,0,0,1,.871-11.4907c.9621-4.0622,6.4386-27.2668,6.4386-27.2668a19.2241,19.2241,0,0,1-1.5985-7.9172c0-7.4156,4.2979-12.9539,9.6506-12.9539,4.5516,0,6.7506,3.4187,6.7506,7.5126,0,4.5754-2.9183,11.42-4.4191,17.7585-1.2537,5.3081,2.6615,9.6376,7.898,9.6376,9.4809,0,15.8664-12.1771,15.8664-26.6049,0-10.9672-7.3866-19.176-20.8218-19.176-15.1792,0-24.6355,11.32-24.6355,23.9641A14.4471,14.4471,0,0,0,29.2123,59.11c.9258,1.0934,1.0544,1.5332.7194,2.7889-.24.9207-.7913,3.1373-1.02,4.0157a1.7244,1.7244,0,0,1-2.5055,1.2525C19.4152,64.313,16.1591,56.6566,16.1591,48.05c0-14.2147,11.9883-31.2594,35.7633-31.2594,19.1049,0,31.6793,13.825,31.6793,28.6652,0,19.63-10.9133,34.295-27,34.295-5.4023,0-10.4841-2.92-12.2249-6.2374,0,0-2.905,11.5294-3.52,13.7558a41.9038,41.9038,0,0,1-5.0364,10.72A50.0405,50.0405,0,1,0-.04,49.9994Z"/>
  </g>
</svg>
