<svg data-name="Layer 1" xmlns="http://www.w3.org/2000/svg" viewBox="0 0 1386.6558 274.9116">
  <g>
    <g>
      <path class="a855387f-6160-4618-a455-8b45093a5357" d="M30.874,114.4663A58.3962,58.3962,0,0,1,8.17,92.5366,60.7133,60.7133,0,0,1,0,61.2319,60.72,60.72,0,0,1,8.17,29.9282,58.3981,58.3981,0,0,1,30.874,7.998,66.1123,66.1123,0,0,1,63.2964,0a65.7347,65.7347,0,0,1,32.25,7.9121,58.5762,58.5762,0,0,1,22.6177,21.93,60.6985,60.6985,0,0,1,8.2558,31.39,60.685,60.685,0,0,1-8.2558,31.3907,58.54,58.54,0,0,1-22.6177,21.93,65.7076,65.7076,0,0,1-32.25,7.9122A66.1124,66.1124,0,0,1,30.874,114.4663Zm58.2222-9.8037a46.69,46.69,0,0,0,18.06-17.8887,50.56,50.56,0,0,0,6.5362-25.542,50.5812,50.5812,0,0,0-6.5362-25.542,46.7155,46.7155,0,0,0-18.06-17.8877,51.9127,51.9127,0,0,0-25.8-6.45,52.3853,52.3853,0,0,0-25.8862,6.45A47.1171,47.1171,0,0,0,19.1782,35.69a50.0509,50.0509,0,0,0-6.622,25.542,50.03,50.03,0,0,0,6.622,25.542A47.0915,47.0915,0,0,0,37.41,104.6626a52.39,52.39,0,0,0,25.8862,6.45A51.9169,51.9169,0,0,0,89.0962,104.6626Z"/>
      <path class="a855387f-6160-4618-a455-8b45093a5357" d="M240.2822,12.04q13.0694,11.01,13.0718,30.272,0,19.2657-13.0718,30.1865-13.0729,10.9248-36.12,10.9219H171.8262v38.0117H159.0981V1.0322h45.064Q227.2093,1.0322,240.2822,12.04ZM231.166,64.4146q9.4578-7.8252,9.46-22.1026,0-14.6161-9.46-22.4458-9.4606-7.8244-27.3476-7.8262H171.8262V72.2407h31.9922Q221.7049,72.2407,231.166,64.4146Z"/>
      <path class="a855387f-6160-4618-a455-8b45093a5357" d="M366.1855,12.04q13.0693,11.01,13.0723,30.272,0,19.2657-13.0723,30.1865Q353.11,83.4233,330.0645,83.42H297.729v38.0117H285.001V1.0322h45.0635Q353.1123,1.0322,366.1855,12.04Zm-9.1171,52.3746q9.4569-7.8252,9.4609-22.1026,0-14.6161-9.4609-22.4458-9.46-7.8244-27.3472-7.8262H297.729V72.2407h31.9922Q347.6061,72.2407,357.0684,64.4146Z"/>
      <path class="a855387f-6160-4618-a455-8b45093a5357" d="M496.0439,110.4243v11.0078h-85.14V1.0322h82.56V12.04H423.6318V54.8687h62.2637V65.7046H423.6318v44.72Z"/>
      <path class="a855387f-6160-4618-a455-8b45093a5357" d="M630.7178,1.0322v120.4H620.2266l-77.4-97.6958v97.6958H530.0986V1.0322H540.59L618.1621,98.728V1.0322Z"/>
      <path class="a855387f-6160-4618-a455-8b45093a5357" d="M774.68,1.0322v120.4H762.124V65.8765H686.7881v55.5556H674.0605V1.0322h12.7276V54.6968H762.124V1.0322Z"/>
      <path class="a855387f-6160-4618-a455-8b45093a5357" d="M903.1621,110.4243v11.0078h-85.14V1.0322H900.582V12.04H830.75V54.8687h62.2637V65.7046H830.75v44.72Z"/>
      <path class="a855387f-6160-4618-a455-8b45093a5357" d="M937.2168,1.0322h12.7275v120.4H937.2168Z"/>
      <path class="a855387f-6160-4618-a455-8b45093a5357" d="M1118.3311,1.0322v120.4h-12.212v-96.32l-47.3007,81.0122h-6.02l-47.3-80.4966v95.8042H993.2871V1.0322h10.4912L1056.0664,90.3l51.7725-89.2681Z"/>
    </g>
    <g>
      <path class="a855387f-6160-4618-a455-8b45093a5357" d="M94.6,238.9634H22.5317l-16.1679,35.26H0l55.728-120.4h5.6758l55.728,120.4h-6.3637Zm-2.2363-4.9883L58.6519,160.5308,24.7681,233.9751Z"/>
      <path class="a855387f-6160-4618-a455-8b45093a5357" d="M229.2759,274.2231,199.52,232.771a75.6174,75.6174,0,0,1-13.0717,1.0322H150.5v40.42h-5.8476v-120.4h41.7959q22.5307,0,35.1738,10.5781t12.6421,29.3262q0,14.4477-7.482,24.166t-21.414,13.5019l30.7881,42.8281ZM186.792,228.4712q20.1233,0,30.96-9.03t10.8359-25.7138q0-16.5119-10.8359-25.542t-30.96-9.03H150.5v69.3164Z"/>
      <path class="a855387f-6160-4618-a455-8b45093a5357" d="M290.4194,267a57.8188,57.8188,0,0,1-22.2739-21.8447,63.9871,63.9871,0,0,1,0-62.2637,57.83,57.83,0,0,1,22.2739-21.8437,64.0551,64.0551,0,0,1,31.7344-7.9121,65.9335,65.9335,0,0,1,23.22,4.0419A50.1306,50.1306,0,0,1,363.95,169.1313l-3.6123,3.7833q-14.9649-14.4479-38.0117-14.4473a57.2448,57.2448,0,0,0-28.7246,7.31,53.6407,53.6407,0,0,0-20.2959,20.038,57.49,57.49,0,0,0,0,56.4161,53.5979,53.5979,0,0,0,20.2959,20.038,57.2157,57.2157,0,0,0,28.7246,7.3106q22.872,0,38.0117-14.62l3.6123,3.7832a51.1605,51.1605,0,0,1-18.49,12.04A67.6978,67.6978,0,0,1,290.4194,267Z"/>
      <path class="a855387f-6160-4618-a455-8b45093a5357" d="M495.1851,153.8228v120.4h-5.8477v-58.48H404.8853v58.48h-5.8487v-120.4h5.8487v56.5878h84.4521V153.8228Z"/>
      <path class="a855387f-6160-4618-a455-8b45093a5357" d="M543.3423,153.8228h5.8486v120.4h-5.8486Z"/>
      <path class="a855387f-6160-4618-a455-8b45093a5357" d="M620.2251,159.1548H576.022v-5.332h94.084v5.332H625.9019V274.2231h-5.6768Z"/>
      <path class="a855387f-6160-4618-a455-8b45093a5357" d="M778.2925,268.8911v5.332H696.936v-120.4h78.9483v5.332h-73.1v51.2558H768.144v5.3321H702.7847v53.1484Z"/>
      <path class="a855387f-6160-4618-a455-8b45093a5357" d="M833.2485,267a57.8235,57.8235,0,0,1-22.2744-21.8447,63.9871,63.9871,0,0,1,0-62.2637,57.8349,57.8349,0,0,1,22.2744-21.8437,64.0551,64.0551,0,0,1,31.7344-7.9121,65.9335,65.9335,0,0,1,23.22,4.0419,50.1306,50.1306,0,0,1,18.5762,11.9541l-3.6123,3.7833q-14.9649-14.4479-38.0117-14.4473a57.2448,57.2448,0,0,0-28.7246,7.31,53.6407,53.6407,0,0,0-20.2959,20.038,57.4936,57.4936,0,0,0,0,56.4161A53.5979,53.5979,0,0,0,836.43,262.269a57.2157,57.2157,0,0,0,28.7246,7.3106q22.872,0,38.0117-14.62l3.6123,3.7832a51.1605,51.1605,0,0,1-18.49,12.04A67.6978,67.6978,0,0,1,833.2485,267Z"/>
      <path class="a855387f-6160-4618-a455-8b45093a5357" d="M963.022,159.1548H918.8188v-5.332h94.084v5.332H968.6987V274.2231H963.022Z"/>
      <path class="a855387f-6160-4618-a455-8b45093a5357" d="M1048.5913,261.8394q-12.4731-13.0694-12.47-38.3565v-69.66h5.8476V223.311q0,23.0508,10.6641,34.6582,10.6626,11.61,30.7881,11.61,19.95,0,30.7021-11.61,10.7462-11.61,10.75-34.6582V153.8228h5.6758v69.66q0,25.2848-12.3838,38.3565-12.3837,13.0737-34.7441,13.0722Q1061.0591,274.9116,1048.5913,261.8394Z"/>
      <path class="a855387f-6160-4618-a455-8b45093a5357" d="M1262.3013,274.2231l-29.7559-41.4521a75.62,75.62,0,0,1-13.0723,1.0322h-35.9472v40.42h-5.8487v-120.4h41.7959q22.5309,0,35.1748,10.5781,12.6417,10.5775,12.6417,29.3262,0,14.4477-7.4815,24.166T1238.394,231.395l30.7872,42.8281Zm-42.4834-45.7519q20.124,0,30.96-9.03t10.836-25.7138q0-16.5119-10.836-25.542t-30.96-9.03h-36.292v69.3164Z"/>
      <path class="a855387f-6160-4618-a455-8b45093a5357" d="M1386.6558,268.8911v5.332h-81.3565v-120.4h78.9483v5.332h-73.1v51.2558h65.3594v5.3321h-65.3594v53.1484Z"/>
    </g>
  </g>
</svg>
